<svg width="1442" height="447" viewBox="0 0 1442 447" fill="none" xmlns="http://www.w3.org/2000/svg">
<g clip-path="url(#clip0_1_2)">
<path d="M575.909 25.7472C577.676 21.0841 582.143 18 587.13 18H827.835C833.07 18 837.701 21.3938 839.278 26.386L854 73H558L575.909 25.7472Z" fill="#61B057"/>
<g filter="url(#filter0_d_1_2)">
<path d="M301.909 25.7472C303.676 21.0841 308.143 18 313.13 18H553.835C559.07 18 563.701 21.3938 565.278 26.386L580 73H284L301.909 25.7472Z" fill="#8FD387"/>
</g>
<g filter="url(#filter1_d_1_2)">
<path fill-rule="evenodd" clip-rule="evenodd" d="M22 10C15.3726 10 10 15.3726 10 22V69.5155V422C10 430.284 16.7157 437 25 437H1417C1425.28 437 1432 430.284 1432 422V84.5155C1432 76.2312 1425.28 69.5155 1417 69.5155H317.248C310.582 69.5155 304.716 65.1169 302.849 58.7182L293.671 27.2756C290.683 17.0378 281.298 10 270.633 10H22Z" fill="#FAFFF3"/>
</g>
</g>
<defs>
<filter id="filter0_d_1_2" x="274" y="8" width="316" height="75" filterUnits="userSpaceOnUse" color-interpolation-filters="sRGB">
<feFlood flood-opacity="0" result="BackgroundImageFix"/>
<feColorMatrix in="SourceAlpha" type="matrix" values="0 0 0 0 0 0 0 0 0 0 0 0 0 0 0 0 0 0 127 0" result="hardAlpha"/>
<feOffset/>
<feGaussianBlur stdDeviation="5"/>
<feComposite in2="hardAlpha" operator="out"/>
<feColorMatrix type="matrix" values="0 0 0 0 0 0 0 0 0 0 0 0 0 0 0 0 0 0 0.2 0"/>
<feBlend mode="normal" in2="BackgroundImageFix" result="effect1_dropShadow_1_2"/>
<feBlend mode="normal" in="SourceGraphic" in2="effect1_dropShadow_1_2" result="shape"/>
</filter>
<filter id="filter1_d_1_2" x="0" y="0" width="1442" height="447" filterUnits="userSpaceOnUse" color-interpolation-filters="sRGB">
<feFlood flood-opacity="0" result="BackgroundImageFix"/>
<feColorMatrix in="SourceAlpha" type="matrix" values="0 0 0 0 0 0 0 0 0 0 0 0 0 0 0 0 0 0 127 0" result="hardAlpha"/>
<feOffset/>
<feGaussianBlur stdDeviation="5"/>
<feComposite in2="hardAlpha" operator="out"/>
<feColorMatrix type="matrix" values="0 0 0 0 0 0 0 0 0 0 0 0 0 0 0 0 0 0 0.1 0"/>
<feBlend mode="normal" in2="BackgroundImageFix" result="effect1_dropShadow_1_2"/>
<feBlend mode="normal" in="SourceGraphic" in2="effect1_dropShadow_1_2" result="shape"/>
</filter>
<clipPath id="clip0_1_2">
<rect width="1442" height="447" fill="white"/>
</clipPath>
</defs>
</svg>
