<svg width="1442" height="447" viewBox="0 0 1442 447" fill="none" xmlns="http://www.w3.org/2000/svg">
<g clip-path="url(#clip0_5_16)">
<path d="M576.122 24.2305C577.747 19.3175 582.339 16 587.514 16H827.49C832.889 16 837.623 19.6055 839.058 24.8103L854 79H558L576.122 24.2305Z" fill="#61B057"/>
<path d="M10 28C10 21.3726 15.3726 16 22 16H270.351C281.149 16 290.617 23.2111 293.488 33.6206L306 79H10V28Z" fill="#8FD387"/>
<g filter="url(#filter0_d_5_16)">
<path fill-rule="evenodd" clip-rule="evenodd" d="M313.13 10C308.143 10 303.676 13.0841 301.909 17.7472L287.67 55.316C285.461 61.1449 279.877 65 273.644 65H25C16.7157 65 10 71.7157 10 80V422C10 430.284 16.7157 437 25 437H1417C1425.28 437 1432 430.284 1432 422V80C1432 71.7157 1425.28 65 1417 65H590.993C584.449 65 578.66 60.7577 576.689 54.5176L565.278 18.386C563.701 13.3938 559.07 10 553.835 10H313.13Z" fill="#FAFFF3"/>
</g>
</g>
<defs>
<filter id="filter0_d_5_16" x="0" y="0" width="1442" height="447" filterUnits="userSpaceOnUse" color-interpolation-filters="sRGB">
<feFlood flood-opacity="0" result="BackgroundImageFix"/>
<feColorMatrix in="SourceAlpha" type="matrix" values="0 0 0 0 0 0 0 0 0 0 0 0 0 0 0 0 0 0 127 0" result="hardAlpha"/>
<feOffset/>
<feGaussianBlur stdDeviation="5"/>
<feComposite in2="hardAlpha" operator="out"/>
<feColorMatrix type="matrix" values="0 0 0 0 0 0 0 0 0 0 0 0 0 0 0 0 0 0 0.2 0"/>
<feBlend mode="normal" in2="BackgroundImageFix" result="effect1_dropShadow_5_16"/>
<feBlend mode="normal" in="SourceGraphic" in2="effect1_dropShadow_5_16" result="shape"/>
</filter>
<clipPath id="clip0_5_16">
<rect width="1442" height="447" fill="white"/>
</clipPath>
</defs>
</svg>
